# This file uses centimeters as units for non-parametric coordinates.

mtllib pillar.mtl
g default
v -4.874869 -7.663379 4.874869
v -4.874869 -7.318996 5.219252
v -5.219252 -7.318996 4.874869
v 5.219252 -7.318996 4.874869
v 4.874869 -7.318996 5.219252
v 4.874869 -7.663379 4.874869
v -5.219252 7.318996 4.874869
v -4.874869 7.318996 5.219252
v -4.874869 7.663379 4.874869
v 4.874869 7.663379 4.874869
v 4.874869 7.318996 5.219252
v 5.219252 7.318996 4.874869
v -5.219252 7.318996 -4.874869
v -4.874869 7.663379 -4.874869
v -4.874869 7.318996 -5.219252
v 4.874869 7.318996 -5.219252
v 4.874869 7.663379 -4.874869
v 5.219252 7.318996 -4.874869
v -5.219252 -7.318996 -4.874869
v -4.874869 -7.318996 -5.219252
v -4.874869 -7.663379 -4.874869
v 4.874869 -7.663379 -4.874869
v 4.874869 -7.318996 -5.219252
v 5.219252 -7.318996 -4.874869
vt 0.991082 0.008106
vt 0.012930 0.021717
vt 0.755794 0.021717
vt 0.750907 0.008106
vt 0.025388 0.021717
vt 0.263652 0.008106
vt 0.258950 0.021717
vt 0.023740 0.352123
vt 0.991082 0.352123
vt 0.268158 0.021717
vt 0.507220 0.008106
vt 0.502733 0.021717
vt 0.269413 0.352123
vt 0.260201 0.352123
vt 0.023400 0.369860
vt 0.752466 0.369860
vt 0.757379 0.352123
vt 0.264972 0.369860
vt 0.504212 0.352123
vt 0.508898 0.369860
vt 0.748117 0.352123
vt 0.746533 0.021717
vt 0.513355 0.352123
vt 0.511887 0.021717
vt 0.012930 0.352123
vt 0.991082 0.369860
vt 0.991082 0.021717
vt 0.025124 0.008106
vn -0.707107 -0.707107 0.000000
vn -0.707107 -0.707107 0.000000
vn -0.707107 -0.707107 0.000000
vn -0.707107 -0.707107 0.000000
vn 0.000000 -0.707107 0.707107
vn 0.000000 -0.707107 0.707107
vn 0.000000 -0.707107 0.707107
vn 0.000000 -0.707107 0.707107
vn -0.707107 0.000000 0.707107
vn -0.707107 0.000000 0.707107
vn -0.707107 0.000000 0.707107
vn -0.707107 0.000000 0.707107
vn 0.707107 -0.707107 0.000000
vn 0.707107 -0.707107 0.000000
vn 0.707107 -0.707107 0.000000
vn 0.707107 -0.707107 0.000000
vn 0.707107 0.000000 0.707107
vn 0.707107 0.000000 0.707107
vn 0.707107 0.000000 0.707107
vn 0.707107 0.000000 0.707107
vn -0.707107 0.707107 0.000000
vn -0.707107 0.707107 0.000000
vn -0.707107 0.707107 0.000000
vn -0.707107 0.707107 0.000000
vn 0.000000 0.707107 0.707107
vn 0.000000 0.707107 0.707107
vn 0.000000 0.707107 0.707107
vn 0.000000 0.707107 0.707107
vn 0.707107 0.707107 0.000000
vn 0.707107 0.707107 0.000000
vn 0.707107 0.707107 0.000000
vn 0.707107 0.707107 0.000000
vn -0.707107 0.000000 -0.707107
vn -0.707107 0.000000 -0.707107
vn -0.707107 0.000000 -0.707107
vn -0.707107 0.000000 -0.707107
vn 0.000000 0.707107 -0.707107
vn 0.000000 0.707107 -0.707107
vn 0.000000 0.707107 -0.707107
vn 0.000000 0.707107 -0.707107
vn 0.707107 0.000000 -0.707107
vn 0.707107 0.000000 -0.707107
vn 0.707107 0.000000 -0.707107
vn 0.707107 0.000000 -0.707107
vn 0.000000 -0.707107 -0.707107
vn 0.000000 -0.707107 -0.707107
vn 0.000000 -0.707107 -0.707107
vn 0.000000 -0.707107 -0.707107
vn 0.000000 0.000000 1.000000
vn 0.000000 0.000000 1.000000
vn 0.000000 0.000000 1.000000
vn 0.000000 0.000000 1.000000
vn 0.000000 0.000000 -1.000000
vn 0.000000 0.000000 -1.000000
vn 0.000000 0.000000 -1.000000
vn 0.000000 0.000000 -1.000000
vn 1.000000 0.000000 0.000000
vn 1.000000 0.000000 0.000000
vn 1.000000 0.000000 0.000000
vn 1.000000 0.000000 0.000000
vn -1.000000 0.000000 0.000000
vn -1.000000 0.000000 0.000000
vn -1.000000 0.000000 0.000000
vn -1.000000 0.000000 0.000000
vn -0.577351 -0.577351 0.577349
vn -0.577351 -0.577351 0.577349
vn -0.577351 -0.577351 0.577349
vn 0.577351 -0.577351 0.577349
vn 0.577351 -0.577351 0.577349
vn 0.577351 -0.577351 0.577349
vn -0.577351 0.577351 0.577349
vn -0.577351 0.577351 0.577349
vn -0.577351 0.577351 0.577349
vn 0.577351 0.577351 0.577349
vn 0.577351 0.577351 0.577349
vn 0.577351 0.577351 0.577349
vn -0.577351 0.577351 -0.577349
vn -0.577351 0.577351 -0.577349
vn -0.577351 0.577351 -0.577349
vn 0.577351 0.577351 -0.577349
vn 0.577351 0.577351 -0.577349
vn 0.577351 0.577351 -0.577349
vn -0.577351 -0.577351 -0.577349
vn -0.577351 -0.577351 -0.577349
vn -0.577351 -0.577351 -0.577349
vn 0.577351 -0.577351 -0.577349
vn 0.577351 -0.577351 -0.577349
vn 0.577351 -0.577351 -0.577349
s off
g pCube1
usemtl initialShadingGroup
f 1/1/1 3/27/2 19/3/3 21/4/4
f 2/5/5 1/28/6 6/6/7 5/7/8
f 3/2/9 2/5/10 8/8/11 7/25/12
f 4/10/13 6/6/14 22/11/15 24/12/16
f 5/7/17 4/10/18 12/13/19 11/14/20
f 7/9/21 9/26/22 14/16/23 13/17/24
f 9/15/25 8/8/26 11/14/27 10/18/28
f 10/18/29 12/13/30 18/19/31 17/20/32
f 13/17/33 15/21/34 20/22/35 19/3/36
f 15/21/37 14/16/38 17/20/39 16/23/40
f 16/23/41 18/19/42 24/12/43 23/24/44
f 21/4/45 20/22/46 23/24/47 22/11/48
f 2/5/49 5/7/50 11/14/51 8/8/52
f 15/21/53 16/23/54 23/24/55 20/22/56
f 4/10/57 24/12/58 18/19/59 12/13/60
f 19/3/61 3/27/62 7/9/63 13/17/64
f 1/28/65 2/5/66 3/2/67
f 4/10/68 5/7/69 6/6/70
f 7/25/71 8/8/72 9/15/73
f 10/18/74 11/14/75 12/13/76
f 13/17/77 14/16/78 15/21/79
f 16/23/80 17/20/81 18/19/82
f 19/3/83 20/22/84 21/4/85
f 22/11/86 23/24/87 24/12/88
